<?xml version="1.0" standalone="no"?>
<!DOCTYPE svg PUBLIC "-//W3C//DTD SVG 20010904//EN"
 "http://www.w3.org/TR/2001/REC-SVG-20010904/DTD/svg10.dtd">
<svg version="1.0" xmlns="http://www.w3.org/2000/svg"
 width="874.000000pt" height="414.000000pt" viewBox="0 0 874.000000 414.000000"
 preserveAspectRatio="xMidYMid meet">

<g transform="translate(0.000000,414.000000) scale(0.100000,-0.100000)"
fill="#000000" stroke="none">
<path d="M5865 3910 c-34 -7 -231 -135 -284 -184 -18 -17 -44 -53 -57 -81
l-24 -50 0 -1287 c0 -1232 1 -1289 19 -1347 25 -80 59 -136 118 -193 39 -37
668 -473 736 -510 11 -5 39 -10 64 -10 52 0 85 20 121 72 20 31 22 44 22 190
0 177 -12 234 -62 294 -16 19 -127 101 -246 182 -119 81 -220 152 -224 158 -4
6 -8 606 -8 1334 0 1435 2 1370 -54 1407 -34 23 -84 33 -121 25z"/>
<path d="M7255 3910 c-34 -7 -231 -135 -284 -184 -18 -17 -44 -53 -57 -81
l-24 -50 0 -1287 c0 -1232 1 -1289 19 -1347 25 -80 59 -136 118 -193 39 -38
666 -472 735 -509 33 -18 108 -13 136 8 64 48 67 58 67 256 0 266 8 254 -330
482 -104 70 -193 133 -197 139 -4 6 -8 271 -8 589 l0 577 23 20 c12 10 114 81
227 158 216 145 256 184 280 270 14 51 11 377 -3 426 -7 21 -24 48 -38 58 -44
33 -85 17 -282 -114 -98 -66 -186 -117 -193 -114 -12 4 -14 72 -14 397 0 343
-2 395 -16 426 -27 56 -94 87 -159 73z"/>
<path d="M1535 3246 c-33 -8 -77 -21 -98 -30 -21 -8 -176 -108 -345 -221 -331
-222 -409 -289 -454 -386 -86 -184 -49 -405 90 -542 26 -25 346 -248 712 -495
475 -322 665 -455 665 -468 0 -13 -67 -64 -220 -166 -120 -82 -224 -147 -230
-144 -5 2 -201 134 -435 292 l-425 289 -62 0 c-52 0 -66 -4 -88 -25 -50 -47
-55 -67 -55 -239 0 -187 14 -242 77 -303 45 -43 666 -464 738 -501 82 -41 153
-58 251 -58 177 0 215 17 597 275 334 226 389 274 439 384 27 57 32 82 36 166
7 164 -43 289 -154 384 -27 23 -344 241 -704 485 -375 253 -655 448 -655 457
0 21 425 311 450 307 11 -2 207 -130 436 -285 229 -155 429 -286 445 -292 36
-14 96 -4 129 22 50 39 55 63 55 250 0 161 -2 176 -24 223 -13 28 -39 64 -57
81 -44 41 -659 454 -725 487 -109 55 -279 78 -389 53z"/>
<path d="M3971 3239 c-41 -10 -97 -32 -125 -48 -92 -52 -680 -453 -718 -489
-60 -57 -80 -118 -86 -258 -6 -168 2 -227 40 -269 36 -42 93 -60 142 -46 19 5
223 136 453 292 230 155 427 284 438 286 25 3 450 -286 450 -307 0 -8 -293
-212 -669 -467 -369 -249 -690 -472 -714 -495 -177 -173 -182 -472 -11 -653
59 -63 625 -451 712 -489 80 -35 142 -47 241 -47 98 0 169 17 249 58 89 44
631 417 683 468 57 57 109 155 124 234 6 33 10 326 10 750 0 765 1 756 -61
871 -16 31 -53 79 -82 107 -73 71 -647 454 -722 482 -123 46 -233 52 -354 20z
m667 -1791 l-3 -311 -250 -170 c-137 -93 -255 -171 -261 -173 -6 -3 -110 62
-230 143 -154 105 -219 154 -219 167 0 14 132 108 470 337 259 175 476 318
483 319 10 0 12 -66 10 -312z"/>
</g>
</svg>
